<?xml version="1.0" encoding="utf-8"?>
<!-- Generator: Adobe Illustrator 24.1.2, SVG Export Plug-In . SVG Version: 6.00 Build 0)  -->
<svg version="1.1" id="Layer_1" xmlns="http://www.w3.org/2000/svg" xmlns:xlink="http://www.w3.org/1999/xlink" x="0px" y="0px"
	 viewBox="0 0 149.67 120.97" style="enable-background:new 0 0 149.67 120.97;" xml:space="preserve">
<style type="text/css">
	.st0{fill:#164194;}
	.st1{fill:#D0D0D0;}
	.st2{fill:#FFED00;}
	.st3{fill:#010202;}
</style>
<g>
	<rect x="80.4" y="57.2" class="st0" width="37.53" height="25.1"/>
	<path class="st1" d="M121.28,40.36l-17.56-17.57c-4.66-4.65-12.2-4.65-16.84,0l-17.6,17.6c-4.65,4.65-4.65,12.2,0,16.84l0.82,0.85
		l1.98,1.98l6.85-6.86l-2.79-2.8c-0.87-0.87-0.87-2.28,0-3.15l17.57-17.58c0.87-0.87,2.28-0.87,3.15,0l17.54,17.54
		c0.87,0.87,0.87,2.28,0,3.15l-5.96,5.97h9.49h0.87v0.87v2.48l2.49-2.48C125.92,52.55,125.92,45.02,121.28,40.36"/>
	<polygon class="st2" points="99.57,60.77 100.87,60.77 99.82,61.59 100.23,62.89 99.18,62.09 98.13,62.89 98.55,61.59 97.48,60.77 
		98.79,60.77 99.18,59.51 	"/>
	<polygon class="st2" points="99.61,77.51 100.92,77.51 99.87,78.31 100.28,79.55 99.23,78.78 98.18,79.55 98.59,78.31 97.53,77.51 
		98.83,77.51 99.23,76.29 	"/>
	<polygon class="st2" points="103.75,76.41 105.06,76.41 104.01,77.19 104.42,78.45 103.37,77.67 102.32,78.45 102.73,77.19 
		101.67,76.41 102.98,76.41 103.37,75.19 	"/>
	<polygon class="st2" points="103.75,61.89 105.06,61.89 104.01,62.68 104.42,63.93 103.37,63.16 102.32,63.93 102.73,62.68 
		101.67,61.89 102.98,61.89 103.37,60.67 	"/>
	<polygon class="st2" points="106.83,64.96 108.13,64.96 107.08,65.75 107.49,67 106.44,66.23 105.4,67 105.81,65.75 104.75,64.96 
		106.05,64.96 106.44,63.74 	"/>
	<polygon class="st2" points="106.83,73.37 108.13,73.37 107.08,74.17 107.49,75.42 106.44,74.64 105.4,75.42 105.81,74.17 
		104.75,73.37 106.05,73.37 106.44,72.15 	"/>
	<polygon class="st2" points="107.98,69.1 109.29,69.1 108.24,69.89 108.64,71.15 107.6,70.37 106.55,71.15 106.96,69.89 
		105.9,69.1 107.2,69.1 107.6,67.89 	"/>
	<polygon class="st2" points="95.34,61.9 96.65,61.9 95.6,62.69 96.01,63.94 94.96,63.17 93.91,63.94 94.32,62.69 93.26,61.9 
		94.56,61.9 94.96,60.68 	"/>
	<polygon class="st2" points="92.36,64.97 93.66,64.97 92.61,65.76 93.02,67.02 91.97,66.24 90.92,67.02 91.33,65.76 90.27,64.97 
		91.58,64.97 91.97,63.75 	"/>
	<polygon class="st2" points="91.25,69.12 92.55,69.12 91.5,69.9 91.91,71.16 90.86,70.39 89.81,71.16 90.22,69.9 89.16,69.12 
		90.47,69.12 90.86,67.9 	"/>
	<polygon class="st2" points="92.36,73.38 93.66,73.38 92.61,74.18 93.02,75.43 91.97,74.65 90.92,75.43 91.33,74.18 90.27,73.38 
		91.58,73.38 91.97,72.16 	"/>
	<polygon class="st2" points="95.39,76.42 96.69,76.42 95.64,77.21 96.05,78.46 95,77.69 93.95,78.46 94.37,77.21 93.31,76.42 
		94.61,76.42 95,75.19 	"/>
	<polygon class="st0" points="0,82.37 11.21,82.37 11.21,84.72 2.71,84.72 2.71,90.76 9.62,90.76 9.62,93.11 2.71,93.11 2.71,99.32 
		11.67,99.32 11.67,101.67 0,101.67 	"/>
	<path class="st0" d="M14.22,87.84h2.65v8.26c0,1.91,0.38,3.45,2.6,3.45c2.81,0,4.48-2.49,4.48-5.22v-6.48h2.65v13.83h-2.57v-1.83
		c0-0.57,0.05-1.01,0.05-1.01h-0.05c-0.57,1.37-2.38,3.17-5.08,3.17c-3.12,0-4.73-1.64-4.73-5.3V87.84z"/>
	<path class="st0" d="M30.05,87.84h2.57v2.41c0,0.57-0.05,1.04-0.05,1.04h0.05c0.63-2.02,2.24-3.61,4.37-3.61
		c0.36,0,0.68,0.05,0.68,0.05v2.62c0,0-0.35-0.08-0.76-0.08c-1.69,0-3.25,1.2-3.88,3.25c-0.25,0.79-0.33,1.64-0.33,2.49v5.66h-2.65
		V87.84z"/>
	<path class="st0" d="M45.96,87.51c4.13,0,7.46,3.03,7.46,7.22c0,4.21-3.34,7.27-7.46,7.27c-4.13,0-7.46-3.06-7.46-7.27
		C38.49,90.54,41.83,87.51,45.96,87.51 M45.96,99.7c2.62,0,4.76-2.08,4.76-4.98c0-2.87-2.13-4.92-4.76-4.92
		c-2.6,0-4.76,2.05-4.76,4.92C41.2,97.62,43.36,99.7,45.96,99.7"/>
	<path class="st0" d="M56.51,90.16h-1.72v-2.13h1.72v-0.66c0-4.57,3.44-5.14,5.19-5.14c0.6,0,1.01,0.08,1.01,0.08v2.27
		c0,0-0.27-0.05-0.68-0.05c-1.01,0-2.9,0.33-2.9,2.9v0.6h3.28v2.13h-3.28v11.51h-2.62V90.16z"/>
	<path class="st0" d="M70.7,87.51c4.13,0,7.46,3.03,7.46,7.22c0,4.21-3.34,7.27-7.46,7.27c-4.13,0-7.46-3.06-7.46-7.27
		C63.24,90.54,66.57,87.51,70.7,87.51 M70.7,99.7c2.62,0,4.76-2.08,4.76-4.98c0-2.87-2.13-4.92-4.76-4.92
		c-2.6,0-4.76,2.05-4.76,4.92C65.94,97.62,68.1,99.7,70.7,99.7"/>
	<path class="st0" d="M80.41,87.84h2.65v8.26c0,1.91,0.38,3.45,2.6,3.45c2.82,0,4.48-2.49,4.48-5.22v-6.48h2.65v13.83h-2.57v-1.83
		c0-0.57,0.05-1.01,0.05-1.01h-0.05c-0.57,1.37-2.38,3.17-5.09,3.17c-3.12,0-4.73-1.64-4.73-5.3V87.84z"/>
	<path class="st0" d="M96.24,87.84h2.57v1.83c0,0.55-0.05,1.01-0.05,1.01h0.05c0.55-1.2,2.19-3.17,5.2-3.17
		c3.25,0,4.76,1.78,4.76,5.3v8.86h-2.65v-8.26c0-1.94-0.41-3.47-2.62-3.47c-2.11,0-3.8,1.39-4.38,3.39
		c-0.16,0.55-0.22,1.18-0.22,1.86v6.48h-2.65V87.84z"/>
	<path class="st0" d="M117.37,87.51c3.2,0,4.27,2.19,4.27,2.19h0.05c0,0-0.05-0.41-0.05-0.93v-6.4h2.65v19.3h-2.52v-1.31
		c0-0.55,0.03-0.93,0.03-0.93h-0.05c0,0-1.12,2.57-4.54,2.57c-3.74,0-6.1-2.95-6.1-7.24C111.11,90.35,113.71,87.51,117.37,87.51
		 M117.73,99.7c2.05,0,3.99-1.45,3.99-4.98c0-2.46-1.28-4.92-3.91-4.92c-2.19,0-3.99,1.8-3.99,4.95
		C113.82,97.76,115.43,99.7,117.73,99.7"/>
	<path class="st1" d="M87.29,50.23l-6.11,6.11h13.65c3.95-4.68,3.73-11.69-0.68-16.09l-2.9-2.92l-6.85,6.85l2.89,2.9
		C88.16,47.95,88.16,49.36,87.29,50.23"/>
	<path class="st1" d="M79.53,57.99l-9.81,9.81c-0.86,0.87-2.28,0.87-3.15,0L49.03,50.26c-0.87-0.87-0.87-2.28,0-3.15l17.58-17.57
		c0.86-0.87,2.28-0.87,3.15,0l2.65,2.63l6.85-6.85l-2.65-2.65c-4.66-4.65-12.2-4.65-16.85,0l-17.6,17.6
		c-4.65,4.65-4.65,12.2,0,16.85l15.64,15.64l1.92,1.93c4.65,4.66,12.2,4.66,16.85,0l0.62-0.61l2.35-2.35V57.99z"/>
</g>
<rect x="149.39" y="57.2" class="st3" width="0.28" height="44.47"/>
</svg>
